<svg xmlns="http://www.w3.org/2000/svg" width="32" height="32" viewBox="0 0 32 32"><defs><style>.a,.b{fill:none;}.b{stroke:#c92127;stroke-linecap:round;stroke-linejoin:round;stroke-width:2px;}</style></defs><path class="a" d="M0,0H32V32H0Z"/><line class="b" y2="2.667" transform="translate(20 6.667)"/><line class="b" y2="2.667" transform="translate(20 14.667)"/><line class="b" y2="2.667" transform="translate(20 22.667)"/><path class="b" d="M5.667,5H24.333A2.667,2.667,0,0,1,27,7.667v4A2.667,2.667,0,0,0,27,17v4a2.667,2.667,0,0,1-2.667,2.667H5.667A2.667,2.667,0,0,1,3,21V17a2.667,2.667,0,0,0,0-5.333v-4A2.667,2.667,0,0,1,5.667,5" transform="translate(1 1.667)"/></svg>